<svg xmlns="http://www.w3.org/2000/svg" width="64.28" height="42.85">
  <path fill="#503392" d="M64.28 36.42v3.21c0 1.77-2.41 3.21-5.36 3.21H5.36C2.41 42.85 0 41.41 0 39.64v-3.22h64.28zm-55.71-7.5V5.36A5.37 5.37 0 0 1 13.93 0h36.42a5.37 5.37 0 0 1 5.36 5.36v23.56a5.37 5.37 0 0 1-5.36 5.36H13.93a5.37 5.37 0 0 1-5.36-5.36zm4.29 0a1.1 1.1 0 0 0 1.07 1.07h36.42a1.1 1.1 0 0 0 1.07-1.07V5.36a1.1 1.1 0 0 0-1.07-1.07H13.93a1.1 1.1 0 0 0-1.07 1.07zm22.5 10.18a.53.53 0 0 0-.54-.54h-5.36a.54.54 0 1 0 0 1.07h5.36a.53.53 0 0 0 .53-.53z"/>
</svg>