<svg xmlns="http://www.w3.org/2000/svg" width="55.71" height="53.13">
  <path fill="#503392" d="M54.84 22.2L42.68 34.05l2.88 16.74a4.4 4.4 0 0 1 0 .67c0 .9-.4 1.67-1.37 1.67a2.72 2.72 0 0 1-1.34-.4l-15-7.9-15 7.9a2.82 2.82 0 0 1-1.34.4c-1 0-1.41-.8-1.41-1.67a4.58 4.58 0 0 1 .07-.67L13 34.05.84 22.2A2.6 2.6 0 0 1 0 20.55c0-1 1-1.41 1.87-1.54l16.81-2.44 7.53-15.2c.3-.64.87-1.37 1.64-1.37s1.34.74 1.64 1.37L37 16.6l16.83 2.45c.8.13 1.88.54 1.88 1.54a2.49 2.49 0 0 1-.87 1.61zm-6.53.4l-14.13-2.05-6.33-12.82-6.32 12.82-14.13 2 10.24 10-2.44 14.08 12.66-6.66 12.62 6.66-2.42-14.08z"/>
</svg>