<svg xmlns="http://www.w3.org/2000/svg" width="59.99" height="51.42">
  <path fill="#503392" d="M52.33 30.74L31.47 50.82a2.1 2.1 0 0 1-2.95 0L7.63 30.67c-.27-.23-7.63-7-7.63-15C0 5.86 6 0 16 0c5.86 0 11.35 4.62 14 7.23C32.64 4.62 38.14 0 44 0c10 0 16 5.86 16 15.67 0 8.04-7.37 14.76-7.67 15.07zM44 4.29c-5 0-10.61 5.39-12.35 7.47a2.21 2.21 0 0 1-3.28 0C26.61 9.68 21 4.29 16 4.29c-5.36 0-11.72 2-11.72 11.38 0 6.13 6.19 11.82 6.26 11.88L30 46.34l19.41-18.75c.1-.1 6.29-5.79 6.29-11.92.01-9.41-6.35-11.38-11.7-11.38z"/>
</svg>