<svg xmlns="http://www.w3.org/2000/svg" width="57.85" height="51.42">
  <path fill="#503392" d="M6.43 7.97v42.37a1.06 1.06 0 0 1-1.07 1.09H3.22a1.06 1.06 0 0 1-1.07-1.09V7.97a4.29 4.29 0 1 1 4.29 0zm51.43 24a2.18 2.18 0 0 1-1.17 1.91l-.57.3c-2.14 1.14-7.2 3.88-12.35 3.88a11.71 11.71 0 0 1-5.29-1.17l-.94-.47c-3.38-1.71-6.06-3-10.18-3-4.83-.08-11.62 2.47-15.5 4.85a2.2 2.2 0 0 1-1.11.3 2.42 2.42 0 0 1-1.11-.23 2.18 2.18 0 0 1-1.07-1.87V11.59a2.21 2.21 0 0 1 1-1.84c2.14-1.27 9.71-5.46 16.74-5.46 5.59 0 10.14 2 14 3.92a6.61 6.61 0 0 0 3 .64c4 0 8.3-2.51 10.38-3.75l1-.57a2.18 2.18 0 0 1 2.08.07 2.21 2.21 0 0 1 1 1.84zm-4.29-21.89c-2.68 1.44-6.43 3-10.24 3a10.55 10.55 0 0 1-4.85-1.07c-3.58-1.77-7.47-3.48-12.12-3.48-4.32 0-9.61 2.11-13.49 4.25v20.1c4.42-2 10-3.78 14.5-3.78 5.16 0 8.5 1.71 12.09 3.48l.94.47a7.52 7.52 0 0 0 3.38.74c3.72 0 7.73-2 9.81-3.08z"/>
</svg>