<svg xmlns="http://www.w3.org/2000/svg" width="59.99" height="51.42">
  <path fill="#503392" d="M30 42.85a46.26 46.26 0 0 1-4.85-.27 36.73 36.73 0 0 1-15.4 8.1 27.56 27.56 0 0 1-3.82.74h-.17a1.55 1.55 0 0 1-1.44-1.27c-.17-.84.4-1.34.9-1.94 2.11-2.38 4.52-4.39 6.09-10C4.42 34.28 0 28.22 0 21.42 0 9.61 13.42 0 30 0s30 9.61 30 21.43-13.43 21.42-30 21.42zM4.29 21.42c0 5 3.35 9.74 9.14 13l2.91 1.67-.9 3.21a24.11 24.11 0 0 1-2.35 5.75 33.19 33.19 0 0 0 9.21-5.72l1.44-1.28 1.91.2a38.05 38.05 0 0 0 4.35.27c13.93 0 25.71-7.83 25.71-17.14S43.92 4.28 30 4.28 4.29 12.12 4.29 21.42zm12.86 4.29a4.29 4.29 0 1 1 4.29-4.29 4.27 4.27 0 0 1-4.3 4.29zm12.86 0a4.29 4.29 0 1 1 4.29-4.29 4.27 4.27 0 0 1-4.3 4.29zm12.86 0a4.29 4.29 0 1 1 4.29-4.29 4.27 4.27 0 0 1-4.31 4.29z"/>
</svg>