<svg xmlns="http://www.w3.org/2000/svg" width="130.95" height="22.23">
  <path d="M17.64.75v12.57a8.75 8.75 0 0 1-8.85 8.82A8.91 8.91 0 0 1 0 13.32V.75A.44.44 0 0 1 .42.3H2a.49.49 0 0 1 .48.45v12.18c0 3.81 2.55 6.81 6.39 6.81s6.24-3.12 6.24-6.81V.75a.48.48 0 0 1 .51-.45h1.41c.31 0 .61.15.61.45zM30.87.64c3.9 0 6.39 3 6.39 6.66a6.65 6.65 0 0 1-6.51 6.84h-6.57v7.5c0 .3-.15.45-.48.45h-1.53c-.33 0-.48-.15-.48-.45v-9.43a.48.48 0 0 1 .48-.51h8.67a4.45 4.45 0 0 0 4-4.29 4.35 4.35 0 0 0-4.14-4.32h-7.09a.45.45 0 0 1-.48-.45V1.17a.48.48 0 0 1 .48-.53z" fill="#503392"/>
  <path d="M63.45 11.34a10.76 10.76 0 0 1-2.34 6.69l2.25 2.22a.48.48 0 0 1 .15.3.54.54 0 0 1-.18.42l-1.08 1.08a.53.53 0 0 1-.39.18.41.41 0 0 1-.3-.18l-2.25-2.25a10.78 10.78 0 0 1-6.75 2.37 11.09 11.09 0 0 1-11.25-11 11.07 11.07 0 1 1 22.14.15zM61 11.16a8.61 8.61 0 1 0-8.55 8.58 8.36 8.36 0 0 0 5.07-1.68l-1.14-1.2a.36.36 0 0 1-.15-.3.48.48 0 0 1 .15-.36l1.08-1.08a.55.55 0 0 1 .36-.15.45.45 0 0 1 .33.12l1.2 1.17a8.62 8.62 0 0 0 1.65-5.1zM89.64 11.07A11.07 11.07 0 1 1 78.57 0a11.1 11.1 0 0 1 11.07 11.07zm-2.46 0a8.62 8.62 0 1 0-8.61 8.64 8.64 8.64 0 0 0 8.61-8.64zM93.57 21.72V1.17c0-.33.15-.51.48-.51h6.9a10.74 10.74 0 1 1 0 21.48H94c-.22 0-.43-.12-.43-.42zM96 19.64h4.83a8.37 8.37 0 0 0 8.43-8.49 8.06 8.06 0 0 0-8.34-8.07H96zM115.83 21.64V1.08c0-.3.18-.42.48-.42h14.19a.4.4 0 0 1 .45.45v1.53c0 .36-.15.54-.48.54h-12.12v3.6H128a.48.48 0 0 1 .45.51v1.5a.48.48 0 0 1-.45.51h-9.63v3.72H128a.45.45 0 0 1 .45.48v1.53a.49.49 0 0 1-.45.51h-9.63v4.1h12a.5.5 0 0 1 .54.51v1.49a.46.46 0 0 1-.51.51h-14.1a.42.42 0 0 1-.47-.51z" fill="#009dda"/>
</svg>
